<?xml version="1.0" standalone="no"?>
<!DOCTYPE svg PUBLIC "-//W3C//DTD SVG 20010904//EN"
 "http://www.w3.org/TR/2001/REC-SVG-20010904/DTD/svg10.dtd">
<svg version="1.0" xmlns="http://www.w3.org/2000/svg"
 width="260.000000pt" height="260.000000pt" viewBox="0 0 260.000000 260.000000"
 preserveAspectRatio="xMidYMid meet">
<metadata>
Created by potrace 1.11, written by Peter Selinger 2001-2013
</metadata>
<g transform="translate(0.000000,260.000000) scale(0.100000,-0.100000)"
fill="#000000" stroke="none">
<path d="M0 1300 l0 -1300 1300 0 1300 0 0 1300 0 1300 -1300 0 -1300 0 0
-1300z m1401 515 c92 -33 151 -102 196 -231 27 -77 28 -85 28 -294 0 -209 -1
-217 -28 -294 -64 -181 -163 -255 -325 -244 -195 14 -294 167 -309 478 -15
322 66 526 234 586 51 18 151 17 204 -1z m-731 -345 l0 -340 70 0 70 0 0 -55
0 -55 -70 0 -70 0 0 -125 0 -125 -70 0 -70 0 0 125 0 125 -220 0 -220 0 0 68
0 67 208 328 207 327 82 0 83 0 0 -340z m1700 0 l0 -340 70 0 70 0 0 -55 0
-55 -70 0 -70 0 0 -125 0 -125 -70 0 -70 0 0 125 0 125 -220 0 -220 0 0 68 0
67 208 328 207 327 82 0 83 0 0 -340z"/>
<path d="M1230 1698 c-91 -47 -124 -171 -117 -443 6 -253 37 -344 132 -380
152 -58 244 97 245 412 0 232 -48 382 -136 419 -46 19 -73 18 -124 -8z m131
-337 c21 -22 29 -39 29 -66 0 -73 -88 -121 -146 -80 -28 19 -48 69 -40 101 19
74 103 98 157 45z"/>
<path d="M370 1408 c-85 -143 -156 -265 -158 -270 -2 -4 69 -8 157 -8 l161 0
0 270 c0 149 -1 270 -3 270 -1 0 -72 -118 -157 -262z"/>
<path d="M2070 1408 c-85 -143 -156 -265 -158 -270 -2 -4 69 -8 157 -8 l161 0
0 270 c0 149 -1 270 -3 270 -1 0 -72 -118 -157 -262z"/>
</g>
</svg>
